<?xml version="1.0" encoding="utf-8"?>
<!-- Generator: Adobe Illustrator 18.1.1, SVG Export Plug-In . SVG Version: 6.00 Build 0)  -->
<svg version="1.1" id="Layer_1" xmlns="http://www.w3.org/2000/svg" xmlns:xlink="http://www.w3.org/1999/xlink" x="0px" y="0px"
	 viewBox="0 0 1500 1500" enable-background="new 0 0 1500 1500" xml:space="preserve">
<path fill="#FFFFFF" stroke="#FFFFFF" stroke-width="21" stroke-miterlimit="10" d="M800.3,93.7c0.8,3.3,3.5,3.1,6,3.1
	c8.5,0,17.1,0,25.1,0c1.9,2.2,3.2,3.6,3.3,3.7c9.4,1.8,17.4,3.3,25.3,4.8c1,1.5,1.9,2.9,2.6,3.9c11.4,2.7,22.4,5.3,33.9,8.1
	c1,1,2.2,2.4,2.9,3.1c12,1.9,23.3,3.7,35.5,5.6c0.7,0.8,2,2.2,2.1,2.3c10.2,2.8,19,5.6,27.9,7.5c5.1,1.1,10.4,1,15.7,1.2
	c5.5,0.2,11,0,14,0c7.6,3.2,12.7,6.1,18.2,7.5c5.1,1.4,9,3.3,12.7,7.3c2.8,3.1,7.9,4,12.6,6.2c3,5.6,10.2,6,15,9.8
	c3.6,0.2,6.9,0.4,10.6,0.6c0.9,1.2,1.8,2.5,3.1,4.2c9.2,1.7,18.8,3.5,29.8,5.5c0,0,1.1,1.2,1.7,1.9c4.7,1.2,8.8,2.3,13,3.3
	c5.2,1.3,8.2,5.1,12,8.5c7.1,6.3,13.6,14,23.6,16.4c1.3,0.3,2.1,2.3,3.6,3.9c7.3,0.1,12.4,4.4,15.8,11.7c3,0.2,6.3,0.5,10.6,0.8
	c4.5,7.3,13.6,10.9,19,18.6c2.6,3.7,6.9,6.3,10.4,9.3c5,4.3,10.3,8.1,14.6,13.1c4.6,5.5,9.3,10.9,14,16.3c0.7,0.8,1.5,1.6,2.4,2
	c10.2,4.1,15.1,13.8,21.9,21.2c3.5,3.8,4.7,9.7,7,14.6c0.7,1.4,1.1,3,2.1,4.2c8.5,9.7,15.6,20.3,22.2,31.4
	c3.8,6.4,7.6,12.9,11.8,19.1c10.2,14.8,14.6,32,20.1,48.8c3.8,11.7,7.9,23.3,11.6,35c2,6.2,3.6,12.6,5.2,19
	c3.6,14.4,7.2,28.7,10.4,43.2c1.7,7.5,2.8,15.1,3.8,22.7c1.4,10.4,1.7,20.9,3.7,31.1c8.5,43.6,9.8,87.6,7,131.8
	c-1.7,28.1-2.9,56.2-5.9,84.2c-4.3,40.5-9.1,81.1-16.8,121.1c-0.8,4-2.4,7.8-3.4,11.8c-4.7,19.1-9.1,38.3-14.1,57.4
	c-2.3,8.9-5.2,17.7-8.4,26.4c-1.4,3.7-4.3,6.7-6.2,10.3c-8,15.2-18.4,29-27.5,43.5c-4.3,6.8-6.5,14.9-9.9,22.3
	c-2.4,5.4-4.8,10.9-8,15.8c-6.2,9.3-12.9,18.3-19.6,27.2c-1.4,1.8-4,2.7-5.7,4.4c-2.4,2.3-6.3,2.8-7.4,6.9c-0.4,1.7-3,3.5-4.9,3.9
	c-9.5,2.1-15,12.2-25.3,12.5c-0.5,0-1.1,0.2-1.9,0.4c-0.8,1.1-1.7,2.4-2.5,3.5c-13,2.8-25.6,5.5-38.4,8.3c-0.8,1.2-1.8,2.5-2.1,3.1
	c-6.6,1.8-12.3,3.4-18,4.9c0.2,0.2,0.3,0.5,0.5,0.7c-3.2,2.3-6,5.3-9.5,6.7c-8.9,3.5-16.8,8-22.5,15.9c-0.7,1-2.6,0.9-3.6,1.8
	c-4.7,4.1-10.5,6.5-15.6,10.3c-6.4,4.8-14.8,7.5-23.5,7.4c-8-0.1-16,0-24.3,0c-1.3,1.4-2.5,2.8-4,4.4c-2.7,0.2-5.7,0.4-8.7,0.7
	c0.1,0.3,0.1,0.6,0.2,0.8c-4.4,1-8.9,2-14.7,3.2c-0.1,0.2-1,1.4-1.6,2.2c-8.7,4-17.1,7.9-25.8,11.9c-10.6,1.4-21.9,2.8-32.8,4.2
	c-1.7,2.2-2.8,3.7-4.1,5.4c-17.1,0-34.2-0.1-51.3,0.1c-6.7,0.1-13.7-1.7-19.8,3c-1.3,1-3.8,0.8-5.7,0.7c-16.5-1.2-32.7,3.2-49.2,3.1
	c-5.8,0-11.6,0-17.7,0c-1.2,1.3-2.5,2.6-4.5,4.7c-3.4,0-7.5-0.1-11.6,0c-5.4,0.2-10.9-1.1-15.9,2.6c-1.3,1-3.7,0.5-5.7,0.5
	c-7.2,0-14.4,0.3-21.5-0.1c-3.7-0.2-7.3-1.6-11-2.2c-2.4-0.4-4.9-0.8-7.3-0.8c-6.9-0.1-13.8,0-20.6,0c-1.5-1.7-2.7-3.1-3.8-4.3
	c-11.8-1-21.6-10.1-34-7.1c-1.5-1.7-2.7-3.1-4.1-4.7c-9.1,0-13.8-8.8-21.9-11.7c-6.5,0-13.1,0-19.6,0c-7.3,3.1-11.1,8.6-14,15.8
	c-2.5,6.2-4.9,13.3-12.4,16.2c-1,0.4-1.4,2.2-2,3.3c-7.2,2.4-14.3,4.1-19,11.1c-1.9,2.8-6.9,3.6-10.5,5.3c-5.1,2.5-8.9,7.2-14.7,8.7
	c-2.8,0.7-5.5,2.1-8.8,3.3c-0.2,0.5-0.4,1.9-1.2,2.3c-9.7,4.8-15.9,13.9-24.3,20c-6.5,4.7-15.2,6.4-23.5,8.4
	c-0.7,1.2-1.4,2.3-2.1,3.5c-5.9,1.7-11.9,3.5-18.8,5.5c-0.3,0.4-1.3,1.7-2.5,3.1c-12.4,1.6-22.2,9.2-33.1,14.6
	c-11.2,5.5-20.2,13.3-28.5,19.7c-10.4,2-19.2,3.6-28.6,5.4c-0.7,0.7-1.7,2-2,2.3c-7.5,2.1-14,3.9-20.4,5.7c-1.2,1.3-2.2,2.5-3.2,3.6
	c-1.4,0.1-2.5,0.3-3.6,0.4c-12.6,0.4-24.8,4.4-37.6,3.1c-7.2-0.7-13.7-2.5-20.2-8.2c-20-1.3-41.1-2.8-63.3-4.3
	c-0.2-0.2-1.1-1.5-2.3-3.1c-12.1-2.5-24.5-5-37-7.6c-8.2-6.8-16.3-13.6-25.1-20.9c-0.3-1.4-0.7-3.5-1.2-5.7
	c11.5-1.4,22.7-2.7,33.6-4c1.4-2.2,2.3-3.5,3.1-4.8c11-2.2,18.9-9.5,27.3-15.7c3.1-2.2,5.5-5.9,7.1-9.5c1.2-2.6,3-3.4,5-4.6
	c11.3-6.9,19.9-16.7,29.8-29c3.3-4.1,7.5-7.7,10.3-12.2c4.3-6.9,7.5-14.3,9.4-22.4c2.6-11.1,6.6-21.9,9.7-33
	c1.3-4.7,2.2-9.7,2.3-14.6c0.1-19,0.5-38.1-0.7-57.1c-0.7-11.1-5-21.7-13.5-29.7c-6.7-6.3-14.1-11.8-20.4-18.4
	c-7.8-8.2-14.9-17.2-22.3-25.9c-3.6-4.3-7.4-8.4-10.8-12.8c-4.6-5.9-9-12-13.6-17.9c-2.5-3.3-4.8-7.2-8.1-9.4
	c-11.1-7.4-17.5-19.1-26.6-28.3c-10.2-10.4-19.2-22-26.2-35.1c-3.4-6.4-8.6-11.8-11.8-18.2c-5.2-10.4-9.4-21.3-13.9-32
	c-8.1-19.1-10.3-39.8-16.4-59.4c-8.6-27.6-9.6-56.4-13.2-84.7c-1.2-9.6-2.5-19.1-3.4-28.7c-0.8-8.5-1.7-17-1.7-25.5
	c0.2-25.1,0-50.3,1.4-75.3c2.1-37.4,6.2-74.6,18.2-110.5c2.2-6.4,5.6-12.4,7.8-18.8c3.1-9.3,5.4-18.9,8.3-28.3
	c3.9-12.8,7.5-25.7,12.3-38.2c5.1-13.4,11.5-26.3,17.5-39.3c0.7-1.6,2.2-3.1,3.7-4.1c3.6-2.5,6.1-5.9,8.3-9.6
	c7.5-12.7,14.9-25.4,22.5-38c4-6.6,8.9-12.8,12.6-19.6c6.8-12.3,13-24.9,19.5-37.4c0.7-1.4,1.6-2.7,2.6-3.9
	c10.8-12.4,21.8-24.5,32.3-37.1c5.9-7.1,10.8-15.1,16.6-22.4c4.4-5.5,8.9-10.8,14.6-15.4c7.5-6,16.7-10,22.6-17.9
	c9.9-3.3,15.4-13.8,25.9-16.2c0.9-0.2,1.4-2.2,2.3-3.7c5.9-1.6,12.2-3.4,19.7-5.5c0.1-0.1,1-1.4,2-2.8c9.6-2.4,19.3-4.6,28.9-7.2
	c1.8-0.5,3.1-2.5,4.2-5c7.9-1.5,15.9-2.9,24.8-4.6c5.6-5.9,14-8.9,23.3-11.3c0.6-1,1.5-2.3,2.3-3.5c8.1-1.2,19.8-7,23.3-11.5
	c5.1-0.8,9.3-2.6,12.6-7.3c1.6-2.3,5.3-3.7,8.3-4.6c6.2-1.9,12.7-3.1,19.9-4.8c0.4-0.5,1.4-1.8,2.3-3c11.4-1.7,22.7-3.3,35.1-5.2
	c0.5-0.5,1.7-1.9,3.4-3.7c7.9-0.3,16.1-0.8,24.4-0.9c39.5-0.1,78.9,0,118.4-0.1c2.7,0,6.3,1.6,7.8-2.5
	C738.4,93.7,769.4,93.7,800.3,93.7z M353.1,252.2c-4,0.5-7.1,0.5-10,1.4c-9,2.9-15.8,9.6-22.5,15.6c-7.6,6.7-13.5,15.3-21.8,21.4
	c-0.7,0.5-1.7,0.7-2.1,1.3c-4.2,7.5-10.7,12.6-17.3,17.8c-8.2,6.5-15.6,14-23.3,21.1c-0.7,0.7-1.2,1.6-1.8,2.5
	c-3.2,4.6-6.4,9.1-9.6,13.7c-5.3,7.7-10.7,15.3-16,23c-3.2,4.6-6.6,9.2-9.1,14.2c-5.3,10.7-9.2,22.1-15.2,32.3
	c-11.4,19.2-14.4,41-21,61.6c-2,6.2-2.4,12.8-3.8,19.2c-1.8,8.6-3.1,17.4-6,25.6c-4.8,13.6-10.6,26.8-16.4,40
	c-4,9.2-6.7,18.4-6.2,28.6c0.5,11.3-0.1,22.6,0.2,33.9c0.2,8.3-0.7,16.4-2.9,24.4c-1.4,5-1.9,10.3-2,15.5c-0.2,29-0.1,58,0,86.9
	c0,3.8,0.6,7.7,1.4,11.4c4.6,23.1,10.2,46.1,8.8,70.1c-0.2,2.9,0.3,6.1,1.3,8.9c4.4,12.3,9.2,24.5,13.7,36.7
	c3.7,9.9,8.1,19.7,10.6,29.9c3.7,14.9,9.2,29,15.8,42.8c3.5,7.4,8.4,13.7,13.2,20.2c5.9,8.1,11.1,16.7,17.4,24.5
	c10.4,13,21.2,25.5,32,38.1c2.2,2.6,5.7,4.4,7.4,7.3c7.2,12.1,18.6,20,29,28.5c8.7,7.2,14.6,16.7,23.1,23.8
	c6.2,14.6,20,23.1,28.9,35.7c4.5,6.4,10.1,12.2,14.8,18.6c2.9,4,6,7.8,8.9,11.5c-3.5,5.5-7.2,9.7-9.2,14.6
	c-7.5,18.4-14.5,37-21.8,55.6c-0.7,1.8-1.5,3.5-2.4,5.2c-4.1,8.1-8.3,16.3-12.5,24.4c-4.5,8.6-9,17.1-13.7,25.5
	c-2.3,4.2-5,8.2-7.5,12.4c-1.2,2.1-2.1,4.5-3.6,6.2c-5.2,5.9-9.6,12.5-11.8,20c-3.2,10.4-3.3,20.9,0.6,31.8c3,0,5.5-0.1,7.9,0
	c25.6,1.2,51.1-0.5,76.5-3.7c0.5-0.1,1.1-0.3,1.8-0.4c0.9-1.1,2-2.3,2.3-2.7c7.6-1.8,14.3-3.1,20.8-5c4-1.2,7.5-3.4,11.1-6
	c7.4-5.4,14.7-11.4,24-13.8c3.9-1,8.6-1.8,11.1-4.5c5.5-5.8,13.2-7.7,19.6-11.7c11-6.8,22.7-12.3,33.8-19.2
	c7.7-4.9,16.7-8,24.8-12.6c10.1-5.8,20.7-10.8,31.2-16.2c3-7.7,7-15.1,8.6-23c1.6-7.9,5.6-12.2,12.3-15.4c2.2-1.1,4.1-2.9,6.6-4.7
	c1.6-0.3,4-0.3,5.9-1.3c4.3-2.3,8.1-2.3,12.4,0.1c1.8,1,4.3,0.8,6.5,0.9c3.5,0.1,7.1,0,9.9,0c2,2.2,3.3,3.6,4.8,5.2
	c5.9,0,11.9-0.9,17.4,0.3c5.5,1.1,10.6,4.3,17.4,7.2c15.9,0,33.5,0,50.1,0c1.7-2.1,2.6-3.4,2.8-3.6c40.7,0,79.6,0,118.4,0
	c1.5,1.4,2.8,2.6,3.7,3.5c8.7,0,16.7,0,22.1,0c11.8-5.3,21.6-8.4,32.1-7.9c1.1-1.6,2-2.9,2.3-3.4c11.7-3.9,22.8-4.3,34.1-4
	c5.8,0.2,11.6,0,17.4-0.2c2.8-0.1,5.6-0.1,8.2-0.7c5.2-1.2,10.3-2.9,15.5-4.4c0.2,0.4,0.3,0.7,0.5,1.1c1.2-1.4,2.4-2.9,3.6-4.3
	c7.9-0.6,15.7-0.5,23.6-2.7c7.8-2.2,16.4-1.3,24.7-1.3c6.6,0,13.1-0.2,19-3.7c-0.6-0.6-1.3-1.3-1.9-1.9c2.6-1.9,5.1-3.8,6.8-5
	c4-0.5,6.4-0.7,8.9-1c2.2-2.2,4.7-3.4,7.4-4.3c2-0.7,4.6-0.3,6.3-1.3c8-4.9,15.8-10.2,23.6-15.4c0.7-0.5,0.9-1.9,1.3-2.8
	c7.6-1.8,15.5-3.6,20.9-8.2c3.6-3.1,7.7-4.4,11.1-7.1c2-1.5,4.2-2.9,5-3.5c9.3-3.4,17.3-6.3,24.8-9c2.2-1.6,3.8-3.2,5.7-4.2
	c4.2-2.3,9-3.6,12.6-6.6c3.8-3.1,7.6-6.4,11.2-9.6c6.7-6,14.4-10.9,20.7-17.6c5.1-5.5,11.5-9.8,15.6-16.3
	c6.3-10,15.1-17.4,24.1-24.7c4.4-3.6,8.2-8.5,11.1-13.4c7-11.7,11.7-24.6,15.5-37.6c0.8-2.9,1.3-5.9,2.4-8.7
	c4.8-11.8,10.1-23.5,14.7-35.4c3.9-10.1,8.7-20,9.4-31.2c0.2-2.8,2.1-5.5,3.3-8.2c4.1-9.8,8.2-19.6,9.4-30.4
	c0.6-5.1,2.3-10.1,4.1-14.9c4.4-11.6,7.1-23.5,7.8-35.9c0.3-4.3,0.9-8.7,1.5-13c0.6-4.3,1.7-8.7,1.7-13c0.1-63.8,0-127.5,0-191.3
	c0-2.8,0.3-5.6-0.4-8.3c-3.3-13.1-4.5-26.4-4.8-39.8c0-1.4-0.3-2.7-0.5-4.1c-2.5-13.1-6.1-26.2-7.2-39.4c-1-12.1-5.2-22.8-9.6-33.7
	c-3.3-8.3-6.3-16.8-8.9-25.4c-3.7-12-6.8-24.2-10.3-36.2c-2.4-8.4-7.5-15.4-11.6-23c-4-7.5-4.6-16.9-13-21.8
	c-4.2-10.5-11-19.6-15.2-30.3c-5.5-13.9-10.2-28.4-21.3-39.8c-6.2-6.3-10.2-14.6-16.1-21.5c-8.8-10.2-17-20.8-28.2-28.6
	c-4.7-3.3-9.5-6.4-14.2-9.7c-0.8-0.6-1.3-1.6-2.1-2.3c-2.9-2.7-5.4-6.5-8.8-7.8c-5.8-2.3-9.7-6.9-15.1-9.6c-1.7-0.9-2.9-2.9-4.3-4.4
	c-5.8-1.8-11.9-3.8-16.4-7.6c-3.6-3.1-7.2-5.8-11.4-7.9c-0.9-0.4-1.9-1-2.5-1.8c-5.3-6.6-11.5-12.1-19.1-16.2
	c-2.8-1.5-5.3-3.4-8.4-5.5c-4.3,0-9,0-12.5,0c-8.6-5.6-16.2-10.6-23.2-15.3c-6.8-1.8-13-3.5-19.9-5.4c-0.6-0.7-1.6-2-2.6-3.2
	c-0.2,0.3-0.3,0.6-0.5,1c-6.4-2.9-12.9-5.8-22.1-9.9c-3.2,0-9.6,0-15.9,0c-4.3,0-8.4,0.1-12.4-2.8c-3.5-2.6-8.3-3.5-12.6-5.1
	c-1.2-1.1-2.3-2.7-3.8-3.6c-3.4-2-7.3-3.3-10.4-5.6c-3.9-2.9-7.9-6.2-12.6-5.8c-11.2,1-21.4-4.1-32.6-4c-0.9-1.4-1.8-2.7-2.8-4.1
	c-6.3-1.3-12.7-3.7-19-3.5c-7.2,0.2-13.1-3.4-20-4.3c-0.9-1.4-1.9-3-2.3-3.5c-10.2,0-18.8,0-27.3,0c-1.2,1.3-2.2,2.5-3.5,4
	c-29.1,0-58.3,0-87.3,0c-1.3-1.9-2.4-3.4-2.9-4.2c-58,0-114.5,0-171.3,0c-2,4.3-5.8,4.4-9.7,4.5c-3.3,0.1-6.7-0.1-9.9,0.5
	c-4.7,0.9-9.3,2.5-14,3.8c0-0.1,0-0.3-0.1-0.4c-3.2,1.3-6.4,2.6-9.7,3.9c-3,3.3-7.1,6.3-9.3,10.4c-6.3,11.7-16.6,17.3-28.6,20.7
	c-0.9,1.3-1.8,2.6-2.5,3.7c-8.7,1.6-17,3.2-25.2,4.7c-2.6,2.1-5.5,3.6-8.4,5.1c-6.2,3-11,7.8-16.1,12.2c-1.4,1.2-3.5,1.7-4.5,3.1
	c-5.4,7.9-10.9,15.9-15.8,24.1c-6.1,10.2-16.1,15.7-25.5,21.8c-4.7,3.1-11.1,3.4-18.5,5.5C355.5,249.5,354.2,250.9,353.1,252.2z"/>
</svg>
